<svg xmlns="http://www.w3.org/2000/svg" width="25.368" height="13.378" viewBox="0 0 25.368 13.378">
  <g id="eye" transform="translate(0 -121)">
    <g id="Group_3479" data-name="Group 3479" transform="translate(-0.001 121)">
      <g id="Group_3478" data-name="Group 3478" transform="translate(0 0)">
        <path id="Path_208" data-name="Path 208" d="M25.178,127.193c-.226-.253-5.673-6.193-12.495-6.193S.415,126.941.189,127.193a.743.743,0,0,0,0,.991c.226.253,5.673,6.193,12.495,6.193s12.268-5.941,12.495-6.193A.743.743,0,0,0,25.178,127.193Zm-12.495,5.7a5.2,5.2,0,1,1,5.2-5.2A5.209,5.209,0,0,1,12.684,132.891Z" transform="translate(0.001 -121)" fill="#9a9a9a"/>
      </g>
    </g>
    <g id="Group_3481" data-name="Group 3481" transform="translate(8.968 123.973)">
      <g id="Group_3480" data-name="Group 3480" transform="translate(0 0)">
        <path id="Path_209" data-name="Path 209" d="M185.459,183.23a2.223,2.223,0,0,1,.936-1.81,3.668,3.668,0,0,0-1.679-.42,3.716,3.716,0,1,0,3.653,4.342A2.217,2.217,0,0,1,185.459,183.23Z" transform="translate(-181 -181)" fill="#9a9a9a"/>
      </g>
    </g>
  </g>
</svg>
